<?xml version="1.0" standalone="no"?>
<svg xmlns:xlink="http://www.w3.org/1999/xlink" fill="#000000" width="18" height="18" viewBox="0 0 256 256" id="Flat" xmlns="http://www.w3.org/2000/svg">
  <path d="M208,140H48a12.01375,12.01375,0,0,0-12,12v40a12.01375,12.01375,0,0,0,12,12H208a12.01375,12.01375,0,0,0,12-12V152A12.01375,12.01375,0,0,0,208,140Zm4,52a4.00458,4.00458,0,0,1-4,4H48a4.00458,4.00458,0,0,1-4-4V152a4.00458,4.00458,0,0,1,4-4H208a4.00458,4.00458,0,0,1,4,4ZM208,52H48A12.01375,12.01375,0,0,0,36,64v40a12.01375,12.01375,0,0,0,12,12H208a12.01375,12.01375,0,0,0,12-12V64A12.01375,12.01375,0,0,0,208,52Zm4,52a4.00458,4.00458,0,0,1-4,4H48a4.00458,4.00458,0,0,1-4-4V64a4.00458,4.00458,0,0,1,4-4H208a4.00458,4.00458,0,0,1,4,4Z"/>
</svg>